<svg xmlns="http://www.w3.org/2000/svg" version="1.0" viewBox="0 0 580 562"><path d="M271 10.6c-36.8 2.8-74.5 13.6-108.6 31.3-48.9 25.4-91.1 67.4-116.8 116.3-21.2 40.3-31.9 82.6-32 126.3 0 29.5 3.6 52.5 12.6 80.3C46.6 427.9 86.9 478 144.9 512.4c34.3 20.3 72.5 33.2 113.1 38.2 16.5 2 51.3 1.5 69.2-1 46.5-6.5 95.8-26.8 132.6-54.5 67.7-51 107.8-134.6 104.9-219.1-.9-27.3-4.9-48.7-14.5-77.5C535.5 154 505 108.6 469 77.6 427.6 42.1 376.6 19 324.5 12c-8.5-1.1-44.3-2-53.5-1.4m47 28.9c43.2 5 83.3 21.8 122.4 51.2 11.6 8.8 32.3 29.1 41.6 40.8 15.5 19.6 29.4 43.8 37 64.5 4.2 11.6 10.2 33.7 11.4 42.1.6 4.4.5 4.8-2.4 6.6-3.1 2-14.7 14.2-23.4 24.8-8.4 10.1-10.8 12.4-12.3 11.8-1.6-.6-7.6-12.4-18.9-37.3-9.8-21.7-13.3-26-21.1-26-6.4 0-8 1.4-19.3 17.4l-8.5 12-.5-32c-.4-25.7-.9-32.7-2.1-36.1-5.4-14.2-18.1-25.8-32.2-29.4l-4.5-1.1-.7-11.6c-.9-13.5-2.9-21.2-8-29.7-8.4-13.9-24.5-25.8-40.4-30-5.4-1.4-12.2-1.6-49.9-1.3-42 .3-44 .4-50.2 2.5-18.5 6.3-33.5 20.6-41.1 39.3-1.8 4.4-2.3 8.1-2.7 18.2l-.4 12.7-5.2 1.1c-14.8 3.1-29.2 18-32.5 33.8-.7 3.2-1.1 16.9-1.1 34v28.7l-2-2.5c-1.1-1.4-4.9-6.6-8.5-11.6-8.4-12-11.3-14.4-17.2-14.4-7.6 0-10.5 4-25.4 35-7 14.6-13.5 26.9-14.4 27.5-1.3.8-2.3.3-4.8-2.6-1.8-1.9-9.3-10.3-16.7-18.7s-14.3-15.5-15.3-15.8c-2.2-.7-2.1-1.4.4-12.7C64.3 162.2 109 103.4 172.9 68c26.1-14.4 61.9-25.9 90.2-28.9 13.6-1.4 41.4-1.2 54.9.4m14.8 62.4c16.1 5.6 26.4 16.7 29.1 31.6 1.4 7.6 1.4 26.3 0 30.4-2.1 6-8.7 7-13.5 2-2.9-3-2.9-3.2-3.4-16.7-.6-14.4-1.2-16.7-6.6-23.9-1.3-1.7-5.2-4.5-8.5-6.2l-6.2-3.1h-34.8c-40 0-41.9.3-49.6 8.2-6.9 7.2-7.6 9.5-8.3 25.7-.7 14.3-.7 14.4-3.5 16.9-3.6 3.1-8.9 2.5-12.2-1.3-2.1-2.4-2.3-3.6-2.3-15.3.1-14.1.9-19.3 4.5-26.4 6.4-12.7 17.2-20.7 32-23.8 2.2-.4 20-.8 39.5-.9l35.5-.1zm-14.3 36.5c3.9 1.7 5.8 4.6 5.3 8.4l-.3 2.7-35.2.3-35.3.2v-4c0-4.3 2-6.9 6.3-8.2 1.2-.3 14.3-.6 29-.7 21-.1 27.5.2 30.2 1.3M208 202.9c0 28.3 0 28.9 2.3 32.2 6 9 20.7 6.6 23.7-3.9.5-2.1 1-15.3 1-30.5V174h106v28.1c0 31.2.4 33.3 6.4 37.1 4.2 2.6 11.7 2 15.3-1.3 5-4.7 5.3-6.7 5.3-36.4V174h7.3c9.6 0 15 2.7 19.2 9.5l3 4.8.3 89.3.2 89.2-28.2.6c-15.6.4-64.7.6-109.3.4l-81-.3-.3-86c-.2-59.7 0-87.6.8-91.1 1.2-5.9 6.1-12.2 11.2-14.7 2-1 5.9-1.7 10.1-1.7h6.7zM92.3 339.2c1.8 1.3 6.6 13.8 6.7 17.1 0 1-1.3 2.9-2.9 4.3-3.2 2.6-4.6 6.1-5.7 13.6l-.6 4.8h-5.4c-4.2 0-5.5-.4-6.3-1.9-2.3-4.2 3.1-30.7 7.4-36.9 1.8-2.5 4.3-2.8 6.8-1m399.1.7c2.8 3 6.5 14.3 8.1 24.6 2 12 1.3 14.1-4.9 15-2.4.4-4.9.4-5.5 0-.6-.3-1.1-2.5-1.1-4.8-.1-5.4-2.9-11.6-6.8-14.9l-3.1-2.6 2.6-7.7c3.6-10.9 6.9-13.8 10.7-9.6m-358.1 8.8c4.2 8 7.7 23.6 6.2 28.2-.5 1.8-1.5 2.1-6.1 2.1H128v-3.3c0-5.5-2-10.7-5.7-14.8-3.5-3.8-3.5-4.1-2.4-7.8 1.6-5.6 4.7-9.1 8-9.1 2.3 0 3.2.8 5.4 4.7m321.7-1.5c1.1 1.8 2.6 5 3.2 7.1 1 3.5 1 3.9-1.1 5.4-3.3 2.2-6.1 9-6.1 14.6v4.8l-5.7-.3-5.8-.3V370c.1-8.9 3.1-20.6 6.3-24.3 2.6-2.9 6.9-2.2 9.2 1.5m-57.5 47.5c-1.5 10.2-7.9 17.1-17.6 19.2-6.7 1.5-174.4 1.5-182 .1-10.1-1.9-17.2-9.3-18.5-19.4l-.7-4.6h219.5zm-242.3 10.8c1.6 3.8 3.2 7.6 3.5 8.2.4 1-7.7 1.3-38.5 1.3h-39l-5-7.8c-2.7-4.2-4.8-8-4.5-8.5.2-.4 18.5-.6 40.5-.5l40.1.3zM506 399c0 .5-2.1 4.3-4.6 8.5l-4.5 7.5h-78.8l2.5-6.3c1.4-3.4 2.9-7.2 3.4-8.5l1-2.2h40.5c25.3 0 40.5.4 40.5 1m-27.4 40.1c.6 1-20.9 21.4-30.8 29.3-43.2 34.8-96.4 54.6-151.3 56.3-41.5 1.3-79-7-118-26.2-18-8.9-36.8-20.6-49.4-30.8-8.8-7.1-30.1-27.6-30.1-28.9 0-1 379-.7 379.6.3"/><path d="M308.3 248.7c-1.5.7-10.2 8.6-19.5 17.5l-16.8 16-5.5-5.1c-4.6-4.4-6-5.1-9.3-5.1-4.9 0-8.6 2.8-10.2 7.5-1.9 5.8 0 9.2 10.4 18.9 10.7 9.8 13.3 11.2 18.2 9.6 4-1.4 44-39.4 46.7-44.6 2.4-4.3 1.6-8.4-2.3-12.3-3.4-3.4-8-4.3-11.7-2.4m-55.4 78.2c-3.2 3.3-3.7 6.7-1.4 11 2.5 4.9 4.6 5.2 37.4 4.9l30.3-.3 3-3.4c3.7-4.1 3.3-8.2-1.2-12.4l-3-2.7h-62.2zM142 456.9c0 1.8 23.8 16.7 38.5 24.2 58 29.2 117.1 34.7 177.2 16.3 11.2-3.4 27.5-10 38.2-15.4 14.8-7.4 39.1-23 39.1-25.1 0-.5-58.6-.9-146.5-.9-88.6 0-146.5.4-146.5.9"/></svg>